<svg width="35" height="65" viewBox="0 0 35 65" fill="none" xmlns="http://www.w3.org/2000/svg">
<path d="M18.4545 14.7746H15.6969V34.2897H18.4545V14.7746Z" fill="#87B272"/>
<path opacity="0.1" d="M25.8237 16.27C23.7385 19.5558 20.1706 21.4691 16.0724 21.9188H16.0703L26.7803 5.04031C28.1209 8.94122 27.9109 12.9843 25.8237 16.2721V16.27Z" fill="#526B45"/>
<path d="M27.8842 13.2386C25.4348 17.0982 21.2437 19.3458 16.4297 19.874H16.4247C14.85 15.2942 15.0966 10.5425 17.5485 6.68035C19.9979 2.81818 24.1914 0.570645 29.0079 0.0448914C30.5827 4.62717 30.336 9.37639 27.8842 13.2386Z" fill="#87B272"/>
<path d="M16.4446 6.71769C18.8666 10.5948 19.0809 15.344 17.4737 19.9139V19.9188C12.6597 19.3582 8.48357 17.0808 6.06161 13.2012C3.63966 9.32154 3.42537 4.56982 5.03253 0C9.84405 0.560638 14.0202 2.83808 16.4421 6.71769H16.4446Z" fill="#87B272"/>
<path opacity="0.1" d="M16.4447 6.71769C18.8667 10.5948 19.0809 15.344 17.4738 19.9139H17.4713L5.03511 0.00250244C9.84663 0.56314 14.0228 2.84057 16.4447 6.72018V6.71769Z" fill="#526B45"/>
<path d="M9.38365 17.172C10.9854 14.7616 13.7262 13.3579 16.8743 13.028H16.8775C17.9074 15.8882 17.746 18.8558 16.1427 21.2679C14.5409 23.6799 11.7985 25.0835 8.64877 25.4119C7.61895 22.5501 7.78026 19.5841 9.38365 17.172Z" fill="#87B272"/>
<path opacity="0.1" d="M9.38362 17.1721C10.9854 14.7616 13.7261 13.3579 16.8742 13.028H16.8759L8.64873 25.4104C7.61892 22.5486 7.78023 19.5826 9.38362 17.1705V17.1721Z" fill="#526B45"/>
<path d="M16.8645 21.2445C15.2807 18.8231 15.1406 15.8571 16.1916 13.0031V13C19.3397 13.3501 22.0706 14.7725 23.6545 17.1954C25.2383 19.6183 25.3785 22.5859 24.3274 25.4399C21.181 25.0898 18.45 23.6674 16.8662 21.2445H16.8645Z" fill="#87B272"/>
<path opacity="0.1" d="M16.8645 21.2445C15.2806 18.8232 15.1405 15.8571 16.1915 13.0031H16.1931L24.3258 25.4384C21.1793 25.0882 18.4483 23.6659 16.8645 21.243V21.2445Z" fill="#526B45"/>
<path d="M3.29644 36.2243L3.37704 37.6497L4.78553 62.96C4.83007 63.7746 5.49825 64.4131 6.30644 64.4131H29.0077C29.8158 64.4131 30.484 63.7767 30.5286 62.96L31.937 37.6497L32.0177 36.2243H3.29644ZM8.40007 43.884C9.41189 43.884 9.41189 45.4685 8.40007 45.4685C7.38825 45.4685 7.39038 43.884 8.40007 43.884ZM9.24432 49.2761C9.18916 49.3058 9.12977 49.327 9.06401 49.3419C9.04068 49.3482 9.01523 49.3503 8.98977 49.3525C8.95583 49.3588 8.91977 49.3609 8.88371 49.3609C8.81795 49.3609 8.75644 49.3546 8.69916 49.3419C8.21341 49.2358 8.03735 48.714 8.16462 48.3025C8.25371 48.0119 8.49341 47.7785 8.88159 47.7785C9.00462 47.7785 9.11492 47.8019 9.20826 47.8443C9.7725 48.0967 9.7831 49.0003 9.24219 49.2782L9.24432 49.2761ZM16.6834 55.1922C16.6686 55.1922 16.6516 55.1943 16.6367 55.1943C16.6219 55.1943 16.6092 55.1943 16.5964 55.1943C15.924 55.1943 15.6992 54.49 15.924 54.0212C16.0364 53.7879 16.2592 53.6119 16.5964 53.6119C16.6113 53.6119 16.624 53.6119 16.6367 53.6119C16.8425 53.6203 17.0058 53.6967 17.1225 53.8134C17.201 53.8897 17.2604 53.9852 17.2986 54.087C17.4661 54.5325 17.2604 55.1328 16.6855 55.19L16.6834 55.1922Z" fill="#ED976B"/>
<path d="M35 30.8385V35.4309C35 35.8679 34.6479 36.2221 34.2152 36.2221H0.784849C0.352121 36.2221 0 35.8679 0 35.4309V30.8385C0 30.4015 0.352121 30.0473 0.784849 30.0473H34.2152C34.6479 30.0473 35 30.4015 35 30.8385Z" fill="#ED976B"/>
<path d="M32.0177 36.2243L31.937 37.6476H3.37704L3.29644 36.2243H32.0177Z" fill="#C16E49"/>
<path opacity="0.1" d="M35 30.8385V35.4309C35 35.8679 34.6479 36.2222 34.2152 36.2222H32.0176L31.937 37.6476L30.5285 62.9579C30.484 63.7724 29.8158 64.4109 29.0076 64.4109H17.7355V30.0473H34.2152C34.6479 30.0473 35 30.4015 35 30.8385Z" fill="#ED976B"/>
<path d="M8.64183 44.9849C8.94516 44.9849 8.94728 44.5119 8.64183 44.5119C8.33637 44.5119 8.33637 44.9849 8.64183 44.9849Z" fill="#ED976B"/>
<path d="M7.94398 44.1406V44.5331C7.94398 44.5946 7.96943 44.6582 8.01398 44.7006C8.05852 44.7431 8.12216 44.7728 8.18155 44.7706C8.24095 44.7685 8.3067 44.7473 8.34913 44.7006C8.39155 44.654 8.41913 44.5967 8.41913 44.5331V44.1406C8.41913 44.0791 8.39367 44.0155 8.34913 43.9731C8.30458 43.9306 8.24095 43.9009 8.18155 43.9031C8.12216 43.9052 8.0564 43.9264 8.01398 43.9731C7.97155 44.0197 7.94398 44.077 7.94398 44.1406Z" fill="#ED976B"/>
<path d="M8.10296 43.9688C7.74236 43.9306 7.50054 44.3082 7.51539 44.6306C7.53024 44.953 7.67024 45.3094 7.94175 45.4939C8.19205 45.6636 8.5463 45.6509 8.80084 45.4982C9.05539 45.3455 9.22933 45.0676 9.27599 44.777C9.32478 44.4694 9.2569 44.1279 9.0172 43.9094C8.79236 43.7036 8.43387 43.6082 8.15599 43.7694C7.85478 43.9455 7.84842 44.3697 7.88236 44.673C7.90145 44.8364 7.93963 45.0124 8.07539 45.1227C8.23872 45.2564 8.46781 45.2755 8.62902 45.1227C8.76054 44.9997 8.83478 44.7939 8.87296 44.6221C8.89418 44.5309 8.9069 44.4355 8.90902 44.34C8.91114 44.2721 8.91539 44.1936 8.87721 44.1342C8.83902 44.0748 8.77751 44.0303 8.70963 44.0091C8.52933 43.9497 8.32781 44.0515 8.23872 44.2127C8.12842 44.4121 8.21327 44.6349 8.31508 44.8173C8.3766 44.9255 8.53145 44.97 8.63963 44.9021C8.74781 44.8342 8.79024 44.6942 8.72448 44.5776C8.71175 44.5564 8.70114 44.5352 8.68842 44.5139C8.68842 44.5139 8.66084 44.4482 8.67357 44.48C8.67357 44.4779 8.65448 44.4058 8.66084 44.4503C8.65872 44.4333 8.66933 44.3761 8.66084 44.4248L8.65024 44.4503C8.66296 44.4291 8.66084 44.4312 8.64175 44.4567C8.68205 44.4333 8.59933 44.4736 8.64599 44.4524L8.62054 44.463C8.64175 44.4567 8.64175 44.4588 8.62054 44.463C8.60357 44.4673 8.58872 44.4673 8.57175 44.463C8.53993 44.4482 8.53569 44.4482 8.5569 44.463L8.44024 44.2594C8.44024 44.3082 8.44024 44.357 8.43599 44.4058C8.43175 44.4821 8.4466 44.3655 8.43175 44.4397C8.42751 44.463 8.42327 44.4885 8.4169 44.5118C8.39145 44.6179 8.37236 44.6709 8.32569 44.7515L8.31508 44.7706C8.30024 44.7939 8.30024 44.7961 8.31508 44.777L8.30024 44.7918C8.31933 44.7706 8.34054 44.7621 8.36387 44.7621H8.3766C8.34902 44.7621 8.35114 44.7621 8.38296 44.7621L8.40205 44.7727C8.37872 44.7579 8.37872 44.76 8.40205 44.777L8.38721 44.7621C8.40205 44.7833 8.40205 44.7833 8.38721 44.76C8.35751 44.707 8.39145 44.7982 8.37872 44.7388C8.37448 44.7176 8.36811 44.6964 8.36387 44.6752C8.35114 44.6221 8.36387 44.7155 8.35963 44.6476C8.35114 44.5415 8.3469 44.4355 8.35751 44.3273C8.35751 44.3124 8.35963 44.2955 8.36175 44.2806C8.35539 44.3379 8.36387 44.2721 8.36599 44.2636C8.37024 44.2445 8.3766 44.2255 8.38296 44.2042C8.39145 44.1788 8.39145 44.1788 8.38296 44.2042C8.38933 44.1936 8.39569 44.1809 8.40205 44.1703C8.36811 44.2212 8.43175 44.1512 8.38508 44.1852C8.39569 44.1767 8.40842 44.1703 8.42115 44.1639C8.37448 44.1873 8.43599 44.1639 8.44236 44.1597C8.49751 44.1406 8.39993 44.1555 8.45721 44.1576C8.4763 44.1576 8.49751 44.1576 8.5166 44.1576C8.57811 44.1576 8.47205 44.1448 8.53145 44.1597C8.54418 44.1639 8.5569 44.1661 8.56963 44.1703C8.58236 44.1745 8.59508 44.1788 8.60781 44.183C8.58236 44.1724 8.58236 44.1724 8.60781 44.183C8.62478 44.1936 8.64387 44.2021 8.66084 44.2127C8.66933 44.217 8.71599 44.2594 8.67781 44.2233C8.70327 44.2467 8.7266 44.27 8.74781 44.2955C8.71387 44.2552 8.75418 44.3082 8.75842 44.3145C8.76902 44.3336 8.77963 44.3527 8.79024 44.3718C8.81993 44.4291 8.78387 44.3336 8.79872 44.3973C8.80508 44.4248 8.81357 44.4545 8.82205 44.4821C8.83902 44.5479 8.82205 44.4567 8.82417 44.4949C8.82417 44.5139 8.82842 44.5309 8.82842 44.55C8.82842 44.5712 8.82842 44.5945 8.82842 44.6158C8.82842 44.62 8.82205 44.6942 8.82842 44.6412C8.82205 44.6836 8.81145 44.7282 8.79872 44.7706C8.79448 44.7833 8.79024 44.7961 8.78599 44.8088C8.77539 44.8342 8.77539 44.8342 8.78599 44.8088C8.77963 44.8215 8.77539 44.8342 8.76902 44.847C8.74993 44.8851 8.72872 44.9191 8.70539 44.953C8.67145 45.0061 8.73508 44.9233 8.69266 44.97C8.68418 44.9806 8.67357 44.9912 8.66508 44.9997C8.65024 45.0145 8.63539 45.0273 8.62054 45.0421C8.57599 45.0867 8.6566 45.023 8.60357 45.0548C8.5866 45.0655 8.56963 45.0782 8.55266 45.0867C8.53993 45.093 8.52933 45.0994 8.5166 45.1058C8.54205 45.0951 8.54205 45.0951 8.5166 45.1058C8.48266 45.1164 8.45084 45.1249 8.4169 45.1312C8.47205 45.1206 8.40842 45.1312 8.39781 45.1312C8.3766 45.1312 8.35751 45.1312 8.3363 45.1312C8.27266 45.1312 8.37872 45.1439 8.31933 45.1291C8.3066 45.1249 8.29387 45.1227 8.27902 45.1185C8.27054 45.1164 8.21114 45.0909 8.25993 45.1142C8.23448 45.1015 8.21327 45.0888 8.18993 45.0739C8.23236 45.1015 8.17933 45.0633 8.17296 45.057C8.16236 45.0464 8.15175 45.0358 8.14327 45.0252C8.15599 45.0442 8.15599 45.0421 8.13902 45.0209C8.11357 44.9827 8.09236 44.9445 8.07327 44.9042C8.04357 44.8406 8.08387 44.9445 8.06266 44.8767C8.05417 44.847 8.04145 44.8194 8.03296 44.7897C8.01811 44.7409 8.00539 44.6921 7.99902 44.6433C8.00539 44.6879 7.99902 44.6073 7.99902 44.6073C7.99902 44.5903 7.99902 44.5733 7.99902 44.5585C8.00114 44.5288 8.00114 44.5267 7.99902 44.5479C8.00327 44.5245 8.00963 44.5033 8.01811 44.4821C8.00114 44.5309 8.02448 44.4779 8.02872 44.4694C8.0563 44.4227 7.99902 44.4906 8.04145 44.4567C8.04993 44.4482 8.06054 44.4376 8.07114 44.4312C8.04993 44.4482 8.04781 44.4503 8.07114 44.4355L8.08811 44.427C8.06054 44.4376 8.05842 44.4397 8.08387 44.4312C8.11145 44.4248 8.10933 44.427 8.07751 44.4312C8.09024 44.4312 8.10296 44.4312 8.11569 44.4333C8.23872 44.4461 8.35751 44.3145 8.35114 44.1979C8.34478 44.0579 8.24721 43.9752 8.11569 43.9624L8.10296 43.9688Z" fill="#ED976B"/>
<path d="M8.86885 48.7097C8.98976 48.854 9.12976 48.9749 9.28249 49.0831C9.39703 49.1637 9.60703 49.0873 9.63037 48.9409C9.67491 48.6418 9.71733 48.3173 9.60915 48.0267C9.48824 47.7043 9.21673 47.4964 8.87521 47.4667C8.5337 47.437 8.23673 47.6194 8.06703 47.8952C7.87188 48.2112 7.90794 48.5803 8.05006 48.907C8.18158 49.2103 8.40855 49.4967 8.73097 49.6112C9.03006 49.7173 9.36733 49.5815 9.51582 49.3037C9.64733 49.0597 9.64946 48.7628 9.58794 48.4976C9.52643 48.2325 9.36097 47.9185 9.0937 47.7997C8.72673 47.6343 8.35127 47.8697 8.25158 48.2409C8.14552 48.6312 8.37673 48.9834 8.62279 49.2634C8.7543 49.414 9.04067 49.2973 9.02582 49.0958C9.00249 48.7776 8.99188 48.4615 8.99188 48.1434L8.63552 48.347C8.65673 48.3618 8.67794 48.3831 8.70976 48.4191C8.72037 48.4318 8.72036 48.4318 8.71188 48.4191L8.72673 48.4403C8.74158 48.4615 8.7543 48.4828 8.76703 48.5061C8.80734 48.5782 8.82643 48.644 8.84552 48.7415C8.85188 48.7712 8.85612 48.8094 8.85824 48.854C8.86036 48.9176 8.86036 48.9791 8.85824 49.0428C8.85188 49.1467 8.83915 49.2528 8.82643 49.3567L9.22097 49.2528C9.20824 49.2421 9.19764 49.2315 9.18491 49.2209C9.13824 49.1785 9.18915 49.2315 9.17006 49.204C9.16158 49.1912 9.15309 49.1764 9.14461 49.1615C9.12552 49.1276 9.15521 49.2061 9.13612 49.1403C9.13188 49.1255 9.12764 49.1085 9.12339 49.0937C9.11915 49.0788 9.11915 49.0597 9.12339 49.0852C9.12339 49.0661 9.12339 49.0449 9.12339 49.0258C9.12552 48.9855 9.11067 49.0767 9.12764 49.0046C9.15521 48.8794 9.08946 48.7479 8.96218 48.714C8.8434 48.6821 8.69915 48.7543 8.67158 48.8794C8.6143 49.1361 8.68643 49.414 8.88794 49.5879C8.9537 49.6452 9.03218 49.6728 9.11703 49.6494C9.18915 49.6303 9.27188 49.5625 9.28249 49.484C9.32279 49.187 9.36309 48.89 9.29946 48.5909C9.24218 48.3258 9.09794 48.0967 8.87521 47.9397C8.72461 47.8337 8.51885 47.9758 8.51885 48.1434C8.51885 48.4615 8.52946 48.7797 8.55279 49.0958L8.95582 48.9282C8.87946 48.8412 8.82006 48.7691 8.76067 48.6631C8.73309 48.6121 8.72461 48.5931 8.70976 48.5421C8.70552 48.5252 8.70127 48.5061 8.69703 48.4891C8.69703 48.4891 8.69067 48.4446 8.69279 48.47C8.69279 48.4912 8.69279 48.4552 8.69279 48.4552C8.69279 48.4403 8.69279 48.4255 8.69279 48.4106C8.69279 48.3682 8.6843 48.4255 8.69703 48.3873C8.7034 48.3661 8.70764 48.3449 8.71612 48.3237C8.7034 48.3618 8.72673 48.3025 8.73309 48.2918C8.73733 48.2834 8.7437 48.2728 8.75006 48.2643C8.73733 48.2834 8.73946 48.2749 8.75218 48.2621C8.76279 48.2515 8.79885 48.2197 8.76703 48.2431C8.784 48.2303 8.80097 48.2197 8.82006 48.2112C8.78188 48.2282 8.82643 48.2112 8.84339 48.2112C8.79249 48.2197 8.89855 48.2261 8.84552 48.2112C8.86037 48.2155 8.90491 48.2303 8.86885 48.2134C8.88794 48.2218 8.90703 48.2346 8.924 48.2452C8.89218 48.2261 8.93461 48.2537 8.94309 48.2643C8.9537 48.2749 8.9643 48.2855 8.97491 48.2961C8.9834 48.3046 8.99612 48.3215 8.98127 48.3024C9.01097 48.3385 9.0343 48.3809 9.05552 48.4234C9.05976 48.4318 9.08521 48.4849 9.07249 48.4531C9.08521 48.4806 9.09582 48.5103 9.1043 48.54C9.11703 48.5803 9.12764 48.6228 9.13612 48.6631C9.13824 48.6779 9.14673 48.7267 9.14037 48.6843C9.14461 48.7118 9.14673 48.7415 9.14673 48.7712C9.14673 48.8137 9.14673 48.8561 9.14673 48.9006C9.14673 48.9473 9.15309 48.8773 9.14673 48.9218C9.14249 48.9452 9.13824 48.9685 9.13188 48.9918C9.12552 49.0152 9.11915 49.0364 9.11067 49.0576C9.12552 49.0194 9.11067 49.0576 9.10218 49.0725C9.0937 49.0873 9.08309 49.1064 9.07036 49.1212C9.09794 49.0852 9.064 49.1234 9.05127 49.1361C9.03218 49.1552 9.05976 49.1318 9.06188 49.1297C9.05127 49.1382 9.04067 49.1446 9.03006 49.1509C9.01733 49.1573 8.97703 49.17 9.00885 49.1615C8.99824 49.1658 8.94097 49.1764 8.97703 49.1721C8.9643 49.1721 8.9537 49.1721 8.94097 49.1721C8.93673 49.1721 8.89218 49.1679 8.9134 49.1721C8.88794 49.1679 8.85824 49.1573 8.82006 49.1361C8.79885 49.1234 8.77764 49.1106 8.75643 49.0958C8.76067 49.0979 8.77552 49.1106 8.75218 49.0937C8.73946 49.0831 8.72461 49.0703 8.71188 49.0597C8.62703 48.9812 8.58036 48.9197 8.52521 48.8158C8.47006 48.7118 8.42127 48.5994 8.40218 48.4785C8.39582 48.4382 8.3937 48.3746 8.40006 48.3237C8.39794 48.3576 8.4043 48.3003 8.40643 48.2897C8.41279 48.2621 8.42127 48.2346 8.43188 48.207C8.43188 48.2028 8.44249 48.1794 8.43188 48.207C8.43612 48.1964 8.44249 48.1858 8.44885 48.1752C8.45946 48.154 8.47218 48.1328 8.48703 48.1115C8.48915 48.1073 8.51885 48.0691 8.504 48.0861C8.49127 48.1031 8.51673 48.0712 8.51673 48.0734C8.53582 48.0543 8.55703 48.0331 8.57824 48.014C8.58249 48.0097 8.59946 47.9949 8.57824 48.014C8.58885 48.0076 8.59734 48.0012 8.60794 47.9949C8.61855 47.9885 8.66309 47.9631 8.65461 47.9673C8.63552 47.9758 8.66946 47.9609 8.66946 47.9609C8.6843 47.9567 8.69915 47.9503 8.714 47.9482C8.72461 47.9461 8.73734 47.944 8.74794 47.9397C8.78612 47.9312 8.71612 47.9397 8.7543 47.9397C8.78188 47.9376 8.80946 47.9397 8.83703 47.9397C8.83703 47.9397 8.87733 47.9418 8.85188 47.9397C8.82855 47.9376 8.87309 47.944 8.87946 47.944C8.90915 47.9503 8.94097 47.9588 8.96855 47.9694C8.994 47.98 8.96855 47.9694 8.96643 47.9694C8.98127 47.9758 8.994 47.9843 9.00673 47.9906C9.01733 47.997 9.02582 48.0034 9.03643 48.0097C9.06824 48.0309 9.01521 47.9906 9.04491 48.0161C9.06612 48.0352 9.08521 48.0543 9.1043 48.0755C9.08521 48.0543 9.12976 48.1158 9.13612 48.1264C9.14249 48.137 9.14673 48.1476 9.15309 48.1582C9.17006 48.1921 9.14461 48.1306 9.15733 48.1667C9.17218 48.2091 9.19339 48.2897 9.19552 48.3109C9.19127 48.2855 9.19764 48.3364 9.19764 48.3406C9.19764 48.3576 9.19976 48.3746 9.20188 48.3894C9.20188 48.4191 9.20188 48.4488 9.20188 48.4785C9.20188 48.5379 9.19764 48.5973 9.1934 48.6567C9.19127 48.6906 9.18703 48.7246 9.18279 48.7585C9.18703 48.7267 9.1743 48.8115 9.1743 48.82L9.52218 48.6779C9.40764 48.5973 9.29946 48.4912 9.204 48.3788C9.12127 48.2812 8.9537 48.294 8.86885 48.3788C8.77127 48.4764 8.78612 48.6143 8.86885 48.714V48.7097Z" fill="#ED976B"/>
<path d="M16.8679 53.5567C16.4394 53.5164 16.0067 53.6522 15.6694 53.9152C15.5845 53.9809 15.5082 54.0594 15.4615 54.157C15.3979 54.2928 15.4 54.437 15.4339 54.5791C15.4764 54.7637 15.5485 54.9546 15.6461 55.1158C15.7542 55.294 15.9049 55.434 16.1042 55.504C16.3164 55.5761 16.5518 55.5294 16.7449 55.4297C16.9379 55.33 17.0927 55.1519 17.2094 54.9673C17.3261 54.7828 17.4279 54.5855 17.4958 54.3861C17.5721 54.1612 17.5403 53.9279 17.3897 53.7455C17.2645 53.5928 17.0779 53.51 16.8849 53.4888C16.4776 53.4422 16.1255 53.7603 15.9579 54.104C15.8518 54.3203 15.7882 54.5558 15.8242 54.7976C15.8561 55.0076 15.9876 55.2049 16.1764 55.3025C16.3864 55.4106 16.6239 55.3915 16.8085 55.2431C16.9527 55.1264 17.0312 54.9482 17.0864 54.7764C17.1182 54.6725 17.1436 54.5664 17.1712 54.4603C17.2009 54.3437 17.2433 54.2228 17.2476 54.1018C17.2518 53.9703 17.2073 53.8325 17.0906 53.7582C16.9527 53.6712 16.7852 53.6988 16.6664 53.8049C16.5115 53.9406 16.4436 54.1528 16.38 54.3415C16.3673 54.3819 16.3524 54.4222 16.3376 54.4603C16.3355 54.4667 16.3079 54.5303 16.3312 54.4794C16.3227 54.4985 16.3142 54.5155 16.3058 54.5346C16.2973 54.5537 16.2867 54.5685 16.2761 54.5855C16.2655 54.6025 16.24 54.63 16.2676 54.6003C16.2549 54.6152 16.24 54.6279 16.2273 54.6428C16.2082 54.6597 16.2082 54.6597 16.2273 54.6428C16.2167 54.6512 16.2039 54.6576 16.1933 54.664L16.5412 54.8061C16.5073 54.6682 16.503 54.5346 16.52 54.3882C16.5349 54.2609 16.3991 54.1528 16.2845 54.1528C16.1445 54.1528 16.0639 54.2609 16.0491 54.3882C16.0258 54.5706 16.0427 54.7552 16.0873 54.9334C16.1233 55.084 16.3058 55.1497 16.4352 55.0755C16.6876 54.9291 16.7724 54.6597 16.8615 54.4009C16.87 54.3734 16.8806 54.3479 16.8912 54.3203C16.8955 54.3097 16.9145 54.2673 16.8955 54.3076C16.9018 54.2949 16.9061 54.2822 16.9124 54.2694C16.9252 54.244 16.9379 54.2206 16.9527 54.1973C16.9591 54.1867 16.9676 54.174 16.9761 54.1634C16.9527 54.1931 16.9782 54.1634 16.9782 54.1634H16.9761C16.8933 54.1931 16.8318 54.174 16.7873 54.1103C16.7873 54.1103 16.7491 54.0637 16.7809 54.1018C16.7809 54.0997 16.7703 54.0446 16.7767 54.0955C16.7767 54.1082 16.7703 54.14 16.7788 54.0912C16.7618 54.174 16.7385 54.2567 16.7152 54.3373C16.6791 54.4773 16.6494 54.6237 16.5921 54.7594C16.6091 54.7212 16.5752 54.7891 16.5688 54.8019C16.5624 54.8125 16.5179 54.8782 16.5476 54.8422C16.5306 54.8634 16.5115 54.8846 16.4903 54.8994C16.5285 54.8697 16.4903 54.8994 16.4797 54.9016C16.4649 54.91 16.467 54.9079 16.4882 54.8973L16.467 54.9037C16.4203 54.8994 16.4542 54.9143 16.4649 54.9037C16.4564 54.91 16.4288 54.9037 16.4627 54.9079C16.4479 54.9079 16.4352 54.9015 16.4203 54.8973C16.3588 54.8825 16.4373 54.91 16.4055 54.8909C16.4012 54.8888 16.3609 54.8634 16.3821 54.8782C16.4033 54.8931 16.3652 54.8634 16.3609 54.8612C16.3503 54.8506 16.3397 54.84 16.3291 54.8273C16.3185 54.8146 16.3185 54.8146 16.3291 54.8273L16.3164 54.8082C16.31 54.7955 16.3015 54.7806 16.2952 54.7679C16.3121 54.8082 16.293 54.7509 16.2909 54.7403C16.2803 54.7022 16.2824 54.7043 16.2824 54.664C16.2824 54.5897 16.293 54.5303 16.3206 54.4476C16.3397 54.3861 16.3588 54.3458 16.3927 54.2864C16.4097 54.2546 16.4309 54.2228 16.45 54.1931C16.4585 54.1803 16.4691 54.1655 16.4776 54.1528C16.4585 54.1761 16.4882 54.1422 16.4945 54.1337C16.5879 54.0297 16.6558 53.9873 16.7767 53.9555C16.73 53.9682 16.8021 53.9555 16.8191 53.9555C16.8339 53.9555 16.8467 53.9555 16.8615 53.9576C16.8191 53.947 16.8488 53.9576 16.8615 53.9576C16.8891 53.9661 16.9167 53.9725 16.9421 53.9809C16.9018 53.9661 16.9358 53.9788 16.9421 53.9831C16.9591 53.9937 16.9782 54.0043 16.9952 54.0149C16.957 53.9894 17.0164 54.0361 17.0249 54.0446C17.0333 54.0531 17.0545 54.0722 17.0249 54.0446C17.0312 54.0552 17.0376 54.0679 17.0461 54.0785C17.0503 54.0891 17.0694 54.1125 17.0461 54.0785C17.0503 54.0912 17.0545 54.104 17.0567 54.1188C17.0588 54.1294 17.0567 54.1634 17.0567 54.1761C17.0312 54.3182 16.9464 54.4561 16.8764 54.5855C16.8021 54.7234 16.7364 54.8315 16.6282 54.9334C16.5879 54.9694 16.5433 55.0012 16.4755 55.0331C16.4373 55.05 16.5009 55.0246 16.4606 55.0394C16.4415 55.0458 16.4203 55.0522 16.4012 55.0585C16.3842 55.0628 16.3694 55.067 16.3524 55.0691C16.3842 55.0649 16.3418 55.0691 16.3291 55.0691C16.3121 55.0691 16.2973 55.0691 16.2803 55.0691C16.24 55.0649 16.3079 55.0776 16.2697 55.067C16.2485 55.0606 16.2294 55.0564 16.2103 55.05C16.223 55.0543 16.24 55.067 16.2039 55.0458C16.1912 55.0373 16.1785 55.0309 16.1658 55.0225C16.1594 55.0182 16.1318 54.9949 16.1594 55.0203C16.1339 54.9991 16.1106 54.9737 16.0873 54.9482C16.0597 54.9164 16.1149 54.9928 16.0745 54.9334C16.0639 54.9164 16.0533 54.9015 16.0427 54.8846C16.0236 54.8549 16.0067 54.8231 15.9918 54.7912C15.9685 54.7425 15.9473 54.6852 15.9197 54.6046C15.8942 54.5282 15.8645 54.4455 15.8709 54.3797C15.873 54.35 15.8709 54.3691 15.8709 54.3755C15.8667 54.3925 15.89 54.3394 15.8752 54.3606C15.8985 54.3267 15.9388 54.2949 15.9706 54.2716C16.0767 54.1909 16.2273 54.1167 16.363 54.0785C16.5306 54.0297 16.6685 54.017 16.8552 54.0361C16.9824 54.0488 17.0906 53.9194 17.0906 53.8006C17.0906 53.6628 16.9824 53.5758 16.8552 53.5652L16.8679 53.5567Z" fill="#ED976B"/>
<path opacity="0.1" d="M35 30.8385V35.4309C35 35.8679 34.6479 36.2222 34.2152 36.2222H32.0176L31.937 37.6476L30.5285 62.9579C30.4839 63.7724 29.8158 64.4109 29.0076 64.4109H16.6367V30.0473H34.2152C34.6479 30.0473 35 30.4015 35 30.8385Z" fill="black"/>
</svg>
